<svg width="20" height="18" viewBox="0 0 20 18" fill="none" xmlns="http://www.w3.org/2000/svg">
    <path d="M7.94048e-08 5.4C-0.000122982 4.68237 0.142796 3.97191 0.420403 3.31015C0.69801 2.64839 1.10474 2.04859 1.61681 1.54583C2.12889 1.04306 2.73604 0.647409 3.40279 0.38199C4.06953 0.11657 4.78249 -0.0132894 5.5 5.54137e-08C6.34896 -0.00450844 7.18919 0.17147 7.96499 0.516271C8.74079 0.861072 9.43445 1.36682 10 2C10.5655 1.36682 11.2592 0.861072 12.035 0.516271C12.8108 0.17147 13.651 -0.00450844 14.5 5.54137e-08C15.2175 -0.0132894 15.9305 0.11657 16.5972 0.38199C17.264 0.647409 17.8711 1.04306 18.3832 1.54583C18.8953 2.04859 19.302 2.64839 19.5796 3.31015C19.8572 3.97191 20.0001 4.68237 20 5.4C20 10.756 13.621 14.8 10 18C6.387 14.773 7.94048e-08 10.76 7.94048e-08 5.4Z" fill="#901C1C"/>
</svg>
